# xmcd
#
# Track frame offsets: 
#        300
#        13813
#        30146
#        52244
#        68486
#        83217
#        108866
#        123569
#        145082
#        160308
#        171077
#        189791
#
# Disc length: 2744 seconds
#
# Revision: 2
# Processed by: cddbd v1.5.2PL0 Copyright (c) Steve Scherf et al.
# Submitted via: ExactAudioCopy v1.0b1
#
DISCID=950ab40c
DTITLE=Debbie Davies - Key To Love
DYEAR=2003
DGENRE=Contemporary Blues
TTITLE0=Light The Fuse
TTITLE1=Chicago Line
TTITLE2=Hard Road
TTITLE3=Room To Move
TTITLE4=Takin' It All To Vegas
TTITLE5=Dream About The Blues
TTITLE6=Hey To Love
TTITLE7=I Should Know Better
TTITLE8=I'm A Sucker For Love
TTITLE9=Steppin' Out
TTITLE10=Nature's Disappearing
TTITLE11=I Just Came To Play
EXTD=
EXTT0=
EXTT1=
EXTT2=
EXTT3=
EXTT4=
EXTT5=
EXTT6=
EXTT7=
EXTT8=
EXTT9=
EXTT10=
EXTT11=
PLAYORDER=
